<svg xmlns="http://www.w3.org/2000/svg" viewBox="0 0 1200 630" width="1200" height="630">
  <defs>
    <linearGradient id="bg" x1="0%" y1="0%" x2="100%" y2="100%">
      <stop offset="0%" stop-color="#0f172a"/>
      <stop offset="100%" stop-color="#1e293b"/>
    </linearGradient>
    <linearGradient id="chevron-grad" x1="0%" y1="0%" x2="100%" y2="100%">
      <stop offset="0%" stop-color="#ff9900"/>
      <stop offset="100%" stop-color="#ffb84d"/>
    </linearGradient>
  </defs>

  <!-- Background -->
  <rect width="1200" height="630" fill="url(#bg)"/>

  <!-- Subtle grid pattern -->
  <g opacity="0.03">
    <line x1="0" y1="0" x2="1200" y2="630" stroke="#ffffff" stroke-width="1"/>
    <line x1="200" y1="0" x2="1200" y2="500" stroke="#ffffff" stroke-width="1"/>
    <line x1="400" y1="0" x2="1200" y2="400" stroke="#ffffff" stroke-width="1"/>
    <line x1="0" y1="200" x2="1000" y2="630" stroke="#ffffff" stroke-width="1"/>
    <line x1="0" y1="400" x2="800" y2="630" stroke="#ffffff" stroke-width="1"/>
  </g>

  <!-- Geometric chevron/arrow motif -->
  <g transform="translate(100, 180)">
    <!-- Outer chevron -->
    <path d="M 0 130 L 80 65 L 160 130 L 80 195 Z" fill="none" stroke="url(#chevron-grad)" stroke-width="4" opacity="0.3"/>
    <!-- Middle chevron -->
    <path d="M 30 130 L 80 85 L 130 130 L 80 175 Z" fill="none" stroke="url(#chevron-grad)" stroke-width="4" opacity="0.6"/>
    <!-- Inner chevron (filled) -->
    <path d="M 55 130 L 80 108 L 105 130 L 80 152 Z" fill="url(#chevron-grad)"/>
    <!-- Arrow accent -->
    <path d="M 80 60 L 80 30 L 95 45" fill="none" stroke="#ff9900" stroke-width="3" stroke-linecap="round" stroke-linejoin="round"/>
  </g>

  <!-- Title -->
  <text x="320" y="260" font-family="system-ui, -apple-system, sans-serif" font-size="72" font-weight="700" fill="#ffffff">APEX Skills</text>

  <!-- Subtitle -->
  <text x="320" y="320" font-family="system-ui, -apple-system, sans-serif" font-size="28" font-weight="400" fill="#94a3b8">Curated AI skills for AWS platform engineering</text>

  <!-- Divider line -->
  <rect x="320" y="360" width="120" height="3" rx="1.5" fill="#ff9900"/>

  <!-- Bottom badges -->
  <g transform="translate(320, 420)">
    <!-- Badge: 12 Skills -->
    <rect x="0" y="0" width="130" height="40" rx="20" fill="#1e293b" stroke="#334155" stroke-width="1"/>
    <text x="65" y="26" font-family="system-ui, -apple-system, sans-serif" font-size="16" font-weight="500" fill="#e2e8f0" text-anchor="middle">12 Skills</text>

    <!-- Badge: MIT-0 -->
    <rect x="150" y="0" width="100" height="40" rx="20" fill="#1e293b" stroke="#334155" stroke-width="1"/>
    <text x="200" y="26" font-family="system-ui, -apple-system, sans-serif" font-size="16" font-weight="500" fill="#e2e8f0" text-anchor="middle">MIT-0</text>

    <!-- Badge: Open Source -->
    <rect x="270" y="0" width="150" height="40" rx="20" fill="#1e293b" stroke="#334155" stroke-width="1"/>
    <text x="345" y="26" font-family="system-ui, -apple-system, sans-serif" font-size="16" font-weight="500" fill="#e2e8f0" text-anchor="middle">Open Source</text>
  </g>

  <!-- AWS-style accent bar at top -->
  <rect x="0" y="0" width="1200" height="4" fill="#ff9900"/>

  <!-- Bottom border accent -->
  <rect x="0" y="626" width="1200" height="4" fill="#ff9900" opacity="0.5"/>
</svg>
